<?xml version="1.0" encoding="utf-8"?>
<svg xmlns="http://www.w3.org/2000/svg" xmlns:xlink="http://www.w3.org/1999/xlink">
    <symbol viewBox="0 0 24 24" fill="none" id="icon-grid-guides" xmlns="http://www.w3.org/2000/svg">
        <path stroke="currentColor" stroke-width="1.5" stroke-linecap="round" stroke-linejoin="round" d="M1.5 12H22.5"/>
        <path stroke="currentColor" stroke-width="1.5" stroke-linecap="round" stroke-linejoin="round" d="M12 1.5V22.5"/>
        <path stroke="currentColor" stroke-width="1.5" stroke-linecap="round" stroke-linejoin="round" d="M6 1.5V22.5"/>
        <path stroke="currentColor" stroke-width="1.5" stroke-linecap="round" stroke-linejoin="round" d="M18 1.5V22.5"/>
        <path stroke="currentColor" stroke-width="1.5" stroke-linecap="round" stroke-linejoin="round" d="M1.5 6H22.5"/>
        <path stroke="currentColor" stroke-width="1.5" stroke-linecap="round" stroke-linejoin="round" d="M1.5 18H22.5"/>
    </symbol>
    <symbol viewBox="0 0 24 24" fill="none" id="icon-file-code" xmlns="http://www.w3.org/2000/svg">
      <path stroke="currentColor" stroke-linecap="round" stroke-linejoin="round" stroke-width="1.5px" d="M22.5,21.753a1.5,1.5,0,0,1-1.5,1.5H3a1.5,1.5,0,0,1-1.5-1.5V2.253A1.5,1.5,0,0,1,3,.753H18.045a1.5,1.5,0,0,1,1.048.427l2.955,2.882A1.5,1.5,0,0,1,22.5,5.136Z"/>
      <polyline stroke="currentColor" stroke-linecap="round" stroke-linejoin="round" stroke-width="1.5px" points="14.295 9.003 18.045 12.753 14.295 16.503"/>
      <polyline stroke="currentColor" stroke-linecap="round" stroke-linejoin="round" stroke-width="1.5px" points="9.795 9.003 6.045 12.753 9.795 16.503"/>
    </symbol>
    <symbol viewBox="0 0 24 24" fill="none" id="icon-color-painting-palette" xmlns="http://www.w3.org/2000/svg">
      <path stroke="currentColor" stroke-linecap="round" stroke-linejoin="round" stroke-width="1.5px" d="M16.022,15.624c.3,3.856,6.014,1.2,5.562,2.54-2.525,7.481-12.648,5.685-16.966,1.165A10.9,10.9,0,0,1,4.64,4.04C8.868-.188,16.032-.495,19.928,4.018,27.56,12.858,15.758,12.183,16.022,15.624Z"/>
      <circle stroke="currentColor" stroke-linecap="round" stroke-linejoin="round" stroke-width="1.5px" cx="7.19" cy="13.309" r="1.52"/>
      <circle stroke="currentColor" stroke-linecap="round" stroke-linejoin="round" stroke-width="1.5px" cx="10.95" cy="18.144" r="1.52"/>
      <circle stroke="currentColor" stroke-linecap="round" stroke-linejoin="round" stroke-width="1.5px" cx="14.586" cy="5.912" r="1.52"/>
      <circle stroke="currentColor" stroke-linecap="round" stroke-linejoin="round" stroke-width="1.5px" cx="8.14" cy="7.524" r="1.52"/>
    </symbol>
  <symbol viewBox="0 0 24 24" fill="none" id="icon-expand-3" xmlns="http://www.w3.org/2000/svg">
    <line stroke="currentColor" stroke-linecap="round" stroke-linejoin="round" stroke-width="1.5px" x1="9.75" y1="14.248" x2="0.75" y2="23.248"/>
    <polyline stroke="currentColor" stroke-linecap="round" stroke-linejoin="round" stroke-width="1.5px" points="23.25 7.498 23.25 0.748 16.5 0.748"/>
    <polyline stroke="currentColor" stroke-linecap="round" stroke-linejoin="round" stroke-width="1.5px" points="0.75 16.498 0.75 23.248 7.5 23.248"/>
    <line stroke="currentColor" stroke-linecap="round" stroke-linejoin="round" stroke-width="1.5px" x1="23.25" y1="0.748" x2="14.25" y2="9.748"/>
  </symbol>
  <symbol viewBox="0 0 24 24" fill="none" id="icon-expand-horizontal-3" xmlns="http://www.w3.org/2000/svg">
      <path d="M0.752014 11.998H9.00201" stroke="currentColor" stroke-width="1.5" stroke-linecap="round" stroke-linejoin="round"/>
      <path d="M15.002 11.998H23.252" stroke="currentColor" stroke-width="1.5" stroke-linecap="round" stroke-linejoin="round"/>
      <path d="M4.50201 8.24799L0.752014 11.998L4.50201 15.748" stroke="currentColor" stroke-width="1.5" stroke-linecap="round" stroke-linejoin="round"/>
      <path d="M19.502 8.24799L23.252 11.998L19.502 15.748" stroke="currentColor" stroke-width="1.5" stroke-linecap="round" stroke-linejoin="round"/>
      <path d="M12.002 7.49799V16.498" stroke="currentColor" stroke-width="1.5" stroke-linecap="round" stroke-linejoin="round"/>
  </symbol>
  <symbol viewBox="0 0 24 24" fill="none" id="icon-expand-vertical-3" xmlns="http://www.w3.org/2000/svg">
      <path d="M11.503 23.248V14.998" stroke="currentColor" stroke-width="1.5" stroke-linecap="round" stroke-linejoin="round"/>
      <path d="M11.503 8.99799V0.747986" stroke="currentColor" stroke-width="1.5" stroke-linecap="round" stroke-linejoin="round"/>
      <path d="M7.75299 19.498L11.503 23.248L15.253 19.498" stroke="currentColor" stroke-width="1.5" stroke-linecap="round" stroke-linejoin="round"/>
      <path d="M7.75299 4.49799L11.503 0.747986L15.253 4.49799" stroke="currentColor" stroke-width="1.5" stroke-linecap="round" stroke-linejoin="round"/>
      <path d="M7.00299 11.998H16.003" stroke="currentColor" stroke-width="1.5" stroke-linecap="round" stroke-linejoin="round"/>
  </symbol>

  <symbol viewBox="0 0 24 24" fill="none" id="icon-arrow-button-right-1" xmlns="http://www.w3.org/2000/svg">
    <path d="M12.311 0.75L23.03 11.47C23.0997 11.5396 23.155 11.6222 23.1927 11.7131C23.2304 11.8041 23.2498 11.9016 23.2498 12C23.2498 12.0984 23.2304 12.1959 23.1927 12.2869C23.155 12.3778 23.0997 12.4604 23.03 12.53L12.311 23.25"
          stroke="currentColor" stroke-width="1.5" stroke-linecap="round" stroke-linejoin="round"/>
    <path d="M1.06104 0.75L11.78 11.47C11.8497 11.5396 11.905 11.6222 11.9427 11.7131C11.9804 11.8041 11.9998 11.9016 11.9998 12C11.9998 12.0984 11.9804 12.1959 11.9427 12.2869C11.905 12.3778 11.8497 12.4604 11.78 12.53L1.06104 23.25"
          stroke="currentColor" stroke-width="1.5" stroke-linecap="round" stroke-linejoin="round"/>
  </symbol>

  <symbol viewBox="0 0 24 24" fill="none" id="icon-arrow-button-left-1" xmlns="http://www.w3.org/2000/svg">
    <path d="M11.689,23.25.97,12.53a.749.749,0,0,1,0-1.06L11.689.75" stroke="currentColor" stroke-width="1.5" stroke-linecap="round" stroke-linejoin="round"/>
    <path d="M22.939,23.25,12.22,12.53a.749.749,0,0,1,0-1.06L22.939.75" stroke="currentColor" stroke-width="1.5" stroke-linecap="round" stroke-linejoin="round"/>
  </symbol>
</svg>
